<svg width="233" height="52" viewBox="0 0 233 52" fill="none" xmlns="http://www.w3.org/2000/svg">
<path d="M13.0812 39.4063C12.675 39.3251 12.35 39.2438 11.9437 39.0813C11.5375 38.9188 11.2125 38.8376 10.8875 38.6751C10.1562 38.3501 9.50624 37.9438 8.85624 37.4563C7.55624 36.5626 6.49999 35.3438 5.68749 33.8813C4.87499 32.5001 4.38749 30.8751 4.30624 29.3313C4.22499 28.5188 4.30624 27.7876 4.38749 26.9751C4.46874 26.5688 4.54999 26.2438 4.63124 25.8376C4.71249 25.4313 4.87499 25.1063 4.95624 24.7001L5.03749 25.8376C5.03749 26.2438 5.11874 26.5688 5.19999 26.9751C5.28124 27.7063 5.44374 28.4376 5.60624 29.0876C5.93124 30.4688 6.41874 31.7688 7.14999 32.9876C7.88124 34.2063 8.69374 35.3438 9.74999 36.4001C10.2375 36.8876 10.8062 37.3751 11.375 37.8626C11.6187 38.1063 11.9437 38.3501 12.2687 38.5938L13.0812 39.4063Z" fill="#42ADE2"/>
<path d="M12.8375 42.3313C12.5938 42.4938 12.2688 42.5751 11.9438 42.6563C11.6188 42.7376 11.375 42.8188 11.05 42.8188C10.4813 42.9001 9.83125 42.9813 9.18125 42.9001C7.9625 42.8188 6.6625 42.4938 5.60625 41.9251C4.46875 41.3563 3.49375 40.4626 2.84375 39.4063C2.51875 38.9188 2.19375 38.3501 1.95 37.7813C1.86875 37.5376 1.7875 37.2126 1.70625 36.8876C1.70625 36.6438 1.625 36.4001 1.625 36.0751C1.86875 36.3188 2.03125 36.5626 2.19375 36.7251C2.4375 36.9688 2.6 37.2126 2.7625 37.3751C3.16875 37.7813 3.49375 38.1876 3.9 38.5126C4.7125 39.2438 5.525 39.8938 6.5 40.3813C7.39375 40.8688 8.45 41.2751 9.425 41.6001C9.9125 41.7626 10.4813 41.8438 11.05 42.0063C11.2938 42.0876 11.6188 42.0876 11.8625 42.1688C12.2688 42.2501 12.5125 42.2501 12.8375 42.3313" fill="#42ADE2"/>
<path d="M31.2 2.84375C31.6063 2.925 31.9313 3.0875 32.3375 3.25C32.7438 3.4125 33.0688 3.575 33.3938 3.7375C34.125 4.14375 34.775 4.55 35.425 5.0375C36.725 6.0125 37.7813 7.3125 38.5125 8.775C39.2438 10.2375 39.65 11.8625 39.65 13.4063C39.65 14.2188 39.5688 14.95 39.4063 15.7625C39.325 16.1688 39.2438 16.4938 39.0813 16.9C38.9188 17.3063 38.8375 17.6313 38.675 17.9563L38.5938 16.8188C38.5938 16.4125 38.5938 16.0875 38.5125 15.6813L38.2688 13.4875C38.025 12.1063 37.5375 10.725 36.8875 9.425C36.2375 8.125 35.425 6.9875 34.45 5.93125C33.9625 5.3625 33.3938 4.875 32.9063 4.30625C32.6625 4.0625 32.3375 3.81875 32.0125 3.575L31.2 2.84375" fill="#42ADE2"/>
<path d="M38.2687 2.5188C38.5937 2.60005 38.8375 2.6813 39.0812 2.8438C39.325 2.92505 39.65 3.08755 39.8937 3.25005C40.3812 3.57505 40.8687 3.90005 41.3562 4.3063C42.25 5.1188 42.9812 6.0938 43.3875 7.2313C43.875 8.3688 44.0375 9.58755 43.875 10.8063C43.7937 11.375 43.6312 11.9438 43.4687 12.5125C43.3875 12.7563 43.225 13.0813 43.1437 13.325C42.9812 13.5688 42.9 13.8125 42.6562 14.0563V12.4313C42.6562 11.8625 42.575 11.375 42.575 10.8875C42.4125 9.8313 42.25 8.8563 41.8437 7.96255C41.4375 6.98755 40.95 6.17505 40.3812 5.2813C40.0562 4.87505 39.7312 4.38755 39.4062 3.9813C39.2437 3.73755 39.0812 3.57505 38.8375 3.3313C38.675 2.92505 38.4312 2.6813 38.2687 2.5188" fill="#42ADE2"/>
<path d="M8.125 14.625C6.5 15.3563 5.93125 17.3062 6.6625 18.9312L16.9 40.3L22.5875 37.6188L12.35 16.1688C11.6188 14.5437 9.75 13.8125 8.125 14.625" fill="#FFDD67"/>
<path d="M35.0188 31.6063L41.0313 28.7625L29.3313 4.3875C28.5188 2.7625 26.5688 2.03125 24.8625 2.84375C23.2375 3.65625 22.5063 5.60625 23.3188 7.3125L35.0188 31.6063Z" fill="#FFDD67"/>
<path d="M24.9437 2.76247C24.7812 2.84372 24.6187 2.92497 24.4562 3.08747C26 2.68122 27.625 3.41247 28.3562 4.87497L40.0562 29.25L41.1125 28.7625L29.4125 4.38747C28.6 2.68122 26.65 1.94997 24.9437 2.76247" fill="#EBA352"/>
<path d="M22.5875 37.5375L28.8438 34.5313L16.9 9.66878C16.0875 7.96253 13.975 7.15003 12.2688 7.96253C10.5625 8.77503 9.83128 10.8875 10.6438 12.5938L22.5875 37.5375Z" fill="#FFDD67"/>
<path d="M12.2688 8.04377C12.1063 8.12502 11.9438 8.20628 11.7812 8.36878C13.325 7.96253 15.1125 8.69378 15.8438 10.2375L23.2375 25.7563L25.025 26.8125L16.9 9.75003C16.0875 7.96253 14.0563 7.23127 12.2688 8.04377" fill="#EBA352"/>
<path d="M27.8688 32.5812L34.125 29.575L22.1813 4.71249C21.3688 3.00624 19.2563 2.19374 17.55 3.08749C15.8438 3.89999 15.1125 6.01249 15.925 7.71874L27.8688 32.5812Z" fill="#FFDD67"/>
<path d="M17.55 3.0063C17.3875 3.08755 17.225 3.25005 17.0625 3.3313C18.6062 2.92505 20.3938 3.6563 21.125 5.20005L29.4937 22.75L31.2812 23.8063L22.1812 4.71255C21.3687 2.92505 19.2563 2.1938 17.55 3.0063" fill="#EBA352"/>
<path d="M8.12501 14.625C7.96251 14.7063 7.80001 14.7875 7.63751 14.95C9.10001 14.5438 10.6438 15.275 11.2938 16.7375L17.3875 29.4938L19.175 30.55L12.35 16.25C11.6188 14.5438 9.75001 13.8125 8.12501 14.625Z" fill="#EBA352"/>
<path d="M49.4 12.1874C47.2063 10.4812 43.6313 12.3499 41.8438 18.1999C40.625 22.2624 40.4625 23.4812 37.8625 24.6999L36.4 21.6937C36.4 21.6937 13.325 32.8249 14.2188 34.6124C14.2188 34.6124 16.9813 43.2249 21.6938 47.2062C28.6813 53.2187 45.0125 46.7999 45.7438 31.2812C46.15 22.2624 51.7563 14.0562 49.4 12.1874Z" fill="#FFDD67"/>
<path d="M49.4 12.1875C48.9938 11.8625 48.5063 11.7 48.0188 11.6188C48.1 11.7 48.2625 11.7 48.3438 11.7813C50.7813 13.65 48.2625 17.9563 46.8813 21.8563C45.7438 24.9438 44.7688 28.1125 44.9313 31.2C45.5813 44.6875 32.0125 51.1063 23.8875 48.6688C31.85 52 46.6375 45.6625 45.9875 31.6063C45.825 28.5188 46.7188 25.5125 47.9375 22.2625C49.2375 18.3625 51.7563 14.0563 49.4 12.1875" fill="#EBA352"/>
<path d="M38.5938 24.375C33.5563 24.9437 26.1625 32.175 31.3625 40.0562C27.5438 32.0937 33.8 26.7313 37.7813 24.8625C38.1875 24.5375 38.5938 24.375 38.5938 24.375" fill="#EBA352"/>
<path d="M66.1562 24V6.9375H71.1953C73.0234 6.9375 74.4102 7.31641 75.3555 8.07422C76.3008 8.82422 76.7734 9.93359 76.7734 11.4023C76.7734 12.2852 76.5312 13.0547 76.0469 13.7109C75.5703 14.3594 74.9141 14.8242 74.0781 15.1055C75.0703 15.3242 75.8672 15.8125 76.4688 16.5703C77.0781 17.3281 77.3828 18.2031 77.3828 19.1953C77.3828 20.7031 76.8945 21.8828 75.918 22.7344C74.9492 23.5781 73.5977 24 71.8633 24H66.1562ZM67.5977 15.7969V22.7812H71.9219C73.1562 22.7812 74.1328 22.4688 74.8516 21.8438C75.5781 21.2109 75.9414 20.3359 75.9414 19.2188C75.9414 18.1641 75.5938 17.332 74.8984 16.7227C74.2109 16.1055 73.2578 15.7969 72.0391 15.7969H67.5977ZM67.5977 14.5898H71.5352C72.7383 14.5664 73.668 14.2852 74.3242 13.7461C74.9883 13.1992 75.3203 12.4062 75.3203 11.3672C75.3203 10.2734 74.9766 9.46875 74.2891 8.95312C73.6094 8.42969 72.5781 8.16797 71.1953 8.16797H67.5977V14.5898ZM84.5664 21.9844L88.2695 11.3203H89.7812L84.3672 26.1562L84.0859 26.8125C83.3906 28.3516 82.3164 29.1211 80.8633 29.1211C80.5273 29.1211 80.168 29.0664 79.7852 28.957L79.7734 27.7969L80.5 27.8672C81.1875 27.8672 81.7422 27.6953 82.1641 27.3516C82.5938 27.0156 82.957 26.4336 83.2539 25.6055L83.875 23.8945L79.0938 11.3203H80.6289L84.5664 21.9844ZM96.707 24.2344C95.6289 24.2344 94.6523 23.9688 93.7773 23.4375C92.9102 22.9062 92.2344 22.168 91.75 21.2227C91.2656 20.2695 91.0234 19.2031 91.0234 18.0234V17.5195C91.0234 16.3008 91.2578 15.2031 91.7266 14.2266C92.2031 13.25 92.8633 12.4844 93.707 11.9297C94.5508 11.3672 95.4648 11.0859 96.4492 11.0859C97.9883 11.0859 99.207 11.6133 100.105 12.668C101.012 13.7148 101.465 15.1484 101.465 16.9688V17.7539H92.418V18.0234C92.418 19.4609 92.8281 20.6602 93.6484 21.6211C94.4766 22.5742 95.5156 23.0508 96.7656 23.0508C97.5156 23.0508 98.1758 22.9141 98.7461 22.6406C99.3242 22.3672 99.8477 21.9297 100.316 21.3281L101.195 21.9961C100.164 23.4883 98.668 24.2344 96.707 24.2344ZM96.4492 12.2812C95.3945 12.2812 94.5039 12.668 93.7773 13.4414C93.0586 14.2148 92.6211 15.2539 92.4648 16.5586H100.07V16.4062C100.031 15.1875 99.6836 14.1953 99.0273 13.4297C98.3711 12.6641 97.5117 12.2812 96.4492 12.2812ZM110.359 24V6.9375H115.398C117.227 6.9375 118.613 7.31641 119.559 8.07422C120.504 8.82422 120.977 9.93359 120.977 11.4023C120.977 12.2852 120.734 13.0547 120.25 13.7109C119.773 14.3594 119.117 14.8242 118.281 15.1055C119.273 15.3242 120.07 15.8125 120.672 16.5703C121.281 17.3281 121.586 18.2031 121.586 19.1953C121.586 20.7031 121.098 21.8828 120.121 22.7344C119.152 23.5781 117.801 24 116.066 24H110.359ZM111.801 15.7969V22.7812H116.125C117.359 22.7812 118.336 22.4688 119.055 21.8438C119.781 21.2109 120.145 20.3359 120.145 19.2188C120.145 18.1641 119.797 17.332 119.102 16.7227C118.414 16.1055 117.461 15.7969 116.242 15.7969H111.801ZM111.801 14.5898H115.738C116.941 14.5664 117.871 14.2852 118.527 13.7461C119.191 13.1992 119.523 12.4062 119.523 11.3672C119.523 10.2734 119.18 9.46875 118.492 8.95312C117.812 8.42969 116.781 8.16797 115.398 8.16797H111.801V14.5898ZM128.77 21.9844L132.473 11.3203H133.984L128.57 26.1562L128.289 26.8125C127.594 28.3516 126.52 29.1211 125.066 29.1211C124.73 29.1211 124.371 29.0664 123.988 28.957L123.977 27.7969L124.703 27.8672C125.391 27.8672 125.945 27.6953 126.367 27.3516C126.797 27.0156 127.16 26.4336 127.457 25.6055L128.078 23.8945L123.297 11.3203H124.832L128.77 21.9844ZM140.91 24.2344C139.832 24.2344 138.855 23.9688 137.98 23.4375C137.113 22.9062 136.438 22.168 135.953 21.2227C135.469 20.2695 135.227 19.2031 135.227 18.0234V17.5195C135.227 16.3008 135.461 15.2031 135.93 14.2266C136.406 13.25 137.066 12.4844 137.91 11.9297C138.754 11.3672 139.668 11.0859 140.652 11.0859C142.191 11.0859 143.41 11.6133 144.309 12.668C145.215 13.7148 145.668 15.1484 145.668 16.9688V17.7539H136.621V18.0234C136.621 19.4609 137.031 20.6602 137.852 21.6211C138.68 22.5742 139.719 23.0508 140.969 23.0508C141.719 23.0508 142.379 22.9141 142.949 22.6406C143.527 22.3672 144.051 21.9297 144.52 21.3281L145.398 21.9961C144.367 23.4883 142.871 24.2344 140.91 24.2344ZM140.652 12.2812C139.598 12.2812 138.707 12.668 137.98 13.4414C137.262 14.2148 136.824 15.2539 136.668 16.5586H144.273V16.4062C144.234 15.1875 143.887 14.1953 143.23 13.4297C142.574 12.6641 141.715 12.2812 140.652 12.2812ZM164.219 19.8047C164.219 18.8594 163.887 18.1133 163.223 17.5664C162.559 17.0117 161.344 16.4883 159.578 15.9961C157.812 15.4961 156.523 14.9531 155.711 14.3672C154.555 13.5391 153.977 12.4531 153.977 11.1094C153.977 9.80469 154.512 8.74609 155.582 7.93359C156.66 7.11328 158.035 6.70312 159.707 6.70312C160.84 6.70312 161.852 6.92188 162.742 7.35938C163.641 7.79687 164.336 8.40625 164.828 9.1875C165.32 9.96875 165.566 10.8398 165.566 11.8008H164.113C164.113 10.6367 163.715 9.70312 162.918 9C162.121 8.28906 161.051 7.93359 159.707 7.93359C158.402 7.93359 157.363 8.22656 156.59 8.8125C155.816 9.39062 155.43 10.1484 155.43 11.0859C155.43 11.9531 155.777 12.6602 156.473 13.207C157.168 13.7539 158.281 14.2383 159.812 14.6602C161.344 15.0742 162.504 15.5078 163.293 15.9609C164.082 16.4062 164.676 16.9414 165.074 17.5664C165.473 18.1914 165.672 18.9297 165.672 19.7812C165.672 21.125 165.133 22.2031 164.055 23.0156C162.984 23.8281 161.57 24.2344 159.812 24.2344C158.609 24.2344 157.504 24.0195 156.496 23.5898C155.496 23.1602 154.734 22.5586 154.211 21.7852C153.695 21.0117 153.438 20.125 153.438 19.125H154.879C154.879 20.3281 155.328 21.2773 156.227 21.9727C157.125 22.668 158.32 23.0156 159.812 23.0156C161.141 23.0156 162.207 22.7227 163.012 22.1367C163.816 21.5508 164.219 20.7734 164.219 19.8047ZM173.371 24.2344C172.293 24.2344 171.316 23.9688 170.441 23.4375C169.574 22.9062 168.898 22.168 168.414 21.2227C167.93 20.2695 167.688 19.2031 167.688 18.0234V17.5195C167.688 16.3008 167.922 15.2031 168.391 14.2266C168.867 13.25 169.527 12.4844 170.371 11.9297C171.215 11.3672 172.129 11.0859 173.113 11.0859C174.652 11.0859 175.871 11.6133 176.77 12.668C177.676 13.7148 178.129 15.1484 178.129 16.9688V17.7539H169.082V18.0234C169.082 19.4609 169.492 20.6602 170.312 21.6211C171.141 22.5742 172.18 23.0508 173.43 23.0508C174.18 23.0508 174.84 22.9141 175.41 22.6406C175.988 22.3672 176.512 21.9297 176.98 21.3281L177.859 21.9961C176.828 23.4883 175.332 24.2344 173.371 24.2344ZM173.113 12.2812C172.059 12.2812 171.168 12.668 170.441 13.4414C169.723 14.2148 169.285 15.2539 169.129 16.5586H176.734V16.4062C176.695 15.1875 176.348 14.1953 175.691 13.4297C175.035 12.6641 174.176 12.2812 173.113 12.2812ZM186.719 12.5156C186.422 12.4609 186.105 12.4336 185.77 12.4336C184.895 12.4336 184.152 12.6797 183.543 13.1719C182.941 13.6562 182.512 14.3633 182.254 15.293V24H180.859V11.3203H182.23L182.254 13.3359C182.996 11.8359 184.188 11.0859 185.828 11.0859C186.219 11.0859 186.527 11.1367 186.754 11.2383L186.719 12.5156ZM193.105 22.0664L196.961 11.3203H198.402L193.668 24H192.531L187.773 11.3203H189.215L193.105 22.0664ZM205.457 24.2344C204.379 24.2344 203.402 23.9688 202.527 23.4375C201.66 22.9062 200.984 22.168 200.5 21.2227C200.016 20.2695 199.773 19.2031 199.773 18.0234V17.5195C199.773 16.3008 200.008 15.2031 200.477 14.2266C200.953 13.25 201.613 12.4844 202.457 11.9297C203.301 11.3672 204.215 11.0859 205.199 11.0859C206.738 11.0859 207.957 11.6133 208.855 12.668C209.762 13.7148 210.215 15.1484 210.215 16.9688V17.7539H201.168V18.0234C201.168 19.4609 201.578 20.6602 202.398 21.6211C203.227 22.5742 204.266 23.0508 205.516 23.0508C206.266 23.0508 206.926 22.9141 207.496 22.6406C208.074 22.3672 208.598 21.9297 209.066 21.3281L209.945 21.9961C208.914 23.4883 207.418 24.2344 205.457 24.2344ZM205.199 12.2812C204.145 12.2812 203.254 12.668 202.527 13.4414C201.809 14.2148 201.371 15.2539 201.215 16.5586H208.82V16.4062C208.781 15.1875 208.434 14.1953 207.777 13.4297C207.121 12.6641 206.262 12.2812 205.199 12.2812ZM218.805 12.5156C218.508 12.4609 218.191 12.4336 217.855 12.4336C216.98 12.4336 216.238 12.6797 215.629 13.1719C215.027 13.6562 214.598 14.3633 214.34 15.293V24H212.945V11.3203H214.316L214.34 13.3359C215.082 11.8359 216.273 11.0859 217.914 11.0859C218.305 11.0859 218.613 11.1367 218.84 11.2383L218.805 12.5156Z" fill="white"/>
<path d="M68.1904 40.0439L70.7881 35.0469H72.2783L68.8467 41.2881V45H67.5342V41.2881L64.1025 35.0469H65.6064L68.1904 40.0439ZM72.5791 41.2334C72.5791 40.5088 72.7204 39.8571 73.0029 39.2783C73.29 38.6995 73.6865 38.2529 74.1924 37.9385C74.7028 37.624 75.2839 37.4668 75.9355 37.4668C76.9427 37.4668 77.7562 37.8154 78.376 38.5127C79.0003 39.21 79.3125 40.1374 79.3125 41.2949V41.3838C79.3125 42.1038 79.1735 42.751 78.8955 43.3252C78.6221 43.8949 78.2279 44.3392 77.7129 44.6582C77.2025 44.9772 76.6146 45.1367 75.9492 45.1367C74.9466 45.1367 74.1331 44.7881 73.5088 44.0908C72.889 43.3936 72.5791 42.4707 72.5791 41.3223V41.2334ZM73.8506 41.3838C73.8506 42.2041 74.0397 42.8626 74.418 43.3594C74.8008 43.8561 75.3112 44.1045 75.9492 44.1045C76.5918 44.1045 77.1022 43.8538 77.4805 43.3525C77.8587 42.8467 78.0479 42.1403 78.0479 41.2334C78.0479 40.4222 77.8542 39.766 77.4668 39.2646C77.084 38.7588 76.5736 38.5059 75.9355 38.5059C75.3112 38.5059 74.8076 38.7542 74.4248 39.251C74.042 39.7477 73.8506 40.4587 73.8506 41.3838ZM85.4648 44.2686C84.9727 44.8473 84.2503 45.1367 83.2979 45.1367C82.5094 45.1367 81.9079 44.9089 81.4932 44.4531C81.083 43.9928 80.8757 43.3138 80.8711 42.416V37.6035H82.1357V42.3818C82.1357 43.5029 82.5915 44.0635 83.5029 44.0635C84.4691 44.0635 85.1117 43.7035 85.4307 42.9834V37.6035H86.6953V45H85.4922L85.4648 44.2686ZM92.1982 38.7383C92.0068 38.7064 91.7995 38.6904 91.5762 38.6904C90.7467 38.6904 90.1839 39.0436 89.8877 39.75V45H88.623V37.6035H89.8535L89.874 38.458C90.2887 37.7972 90.8766 37.4668 91.6377 37.4668C91.8838 37.4668 92.0706 37.4987 92.1982 37.5625V38.7383ZM96.5391 41.2402C96.5391 40.0872 96.8057 39.1712 97.3389 38.4922C97.8721 37.8086 98.5785 37.4668 99.458 37.4668C100.36 37.4668 101.064 37.7858 101.57 38.4238L101.632 37.6035H102.787V44.8223C102.787 45.7793 102.502 46.5335 101.933 47.085C101.368 47.6364 100.606 47.9121 99.6494 47.9121C99.1162 47.9121 98.5944 47.7982 98.084 47.5703C97.5736 47.3424 97.1839 47.0303 96.915 46.6338L97.5713 45.875C98.1136 46.5449 98.7767 46.8799 99.5605 46.8799C100.176 46.8799 100.654 46.7067 100.996 46.3604C101.342 46.014 101.516 45.5264 101.516 44.8975V44.2617C101.01 44.8451 100.319 45.1367 99.4443 45.1367C98.5785 45.1367 97.8766 44.7881 97.3389 44.0908C96.8057 43.3936 96.5391 42.4434 96.5391 41.2402ZM97.8105 41.3838C97.8105 42.2178 97.9814 42.874 98.3232 43.3525C98.665 43.8265 99.1436 44.0635 99.7588 44.0635C100.556 44.0635 101.142 43.7012 101.516 42.9766V39.5996C101.128 38.8932 100.547 38.54 99.7725 38.54C99.1572 38.54 98.6764 38.7793 98.3301 39.2578C97.9837 39.7363 97.8105 40.445 97.8105 41.3838ZM109.268 44.2686C108.775 44.8473 108.053 45.1367 107.101 45.1367C106.312 45.1367 105.711 44.9089 105.296 44.4531C104.886 43.9928 104.678 43.3138 104.674 42.416V37.6035H105.938V42.3818C105.938 43.5029 106.394 44.0635 107.306 44.0635C108.272 44.0635 108.914 43.7035 109.233 42.9834V37.6035H110.498V45H109.295L109.268 44.2686ZM113.8 45H112.535V37.6035H113.8V45ZM112.433 35.6416C112.433 35.4365 112.494 35.2633 112.617 35.1221C112.745 34.9808 112.932 34.9102 113.178 34.9102C113.424 34.9102 113.611 34.9808 113.738 35.1221C113.866 35.2633 113.93 35.4365 113.93 35.6416C113.93 35.8467 113.866 36.0176 113.738 36.1543C113.611 36.291 113.424 36.3594 113.178 36.3594C112.932 36.3594 112.745 36.291 112.617 36.1543C112.494 36.0176 112.433 35.8467 112.433 35.6416ZM115.522 41.2402C115.522 40.1055 115.791 39.194 116.329 38.5059C116.867 37.8132 117.571 37.4668 118.441 37.4668C119.307 37.4668 119.993 37.763 120.499 38.3555V34.5H121.764V45H120.602L120.54 44.207C120.034 44.8268 119.33 45.1367 118.428 45.1367C117.571 45.1367 116.871 44.7858 116.329 44.084C115.791 43.3822 115.522 42.4661 115.522 41.3359V41.2402ZM116.787 41.3838C116.787 42.2223 116.96 42.8786 117.307 43.3525C117.653 43.8265 118.132 44.0635 118.742 44.0635C119.544 44.0635 120.13 43.7035 120.499 42.9834V39.5859C120.121 38.8887 119.54 38.54 118.756 38.54C118.136 38.54 117.653 38.7793 117.307 39.2578C116.96 39.7363 116.787 40.445 116.787 41.3838ZM126.802 45.1367C125.799 45.1367 124.983 44.8086 124.354 44.1523C123.726 43.4915 123.411 42.6097 123.411 41.5068V41.2744C123.411 40.5407 123.55 39.8867 123.828 39.3125C124.111 38.7337 124.503 38.2826 125.004 37.959C125.51 37.6309 126.057 37.4668 126.645 37.4668C127.606 37.4668 128.354 37.7835 128.887 38.417C129.42 39.0505 129.687 39.9574 129.687 41.1377V41.6641H124.676C124.694 42.3932 124.906 42.9834 125.312 43.4346C125.722 43.8812 126.241 44.1045 126.87 44.1045C127.317 44.1045 127.695 44.0133 128.005 43.8311C128.315 43.6488 128.586 43.4072 128.818 43.1064L129.591 43.708C128.971 44.6605 128.041 45.1367 126.802 45.1367ZM126.645 38.5059C126.134 38.5059 125.706 38.6927 125.359 39.0664C125.013 39.4355 124.799 39.9551 124.717 40.625H128.422V40.5293C128.385 39.8867 128.212 39.39 127.902 39.0391C127.592 38.6836 127.173 38.5059 126.645 38.5059ZM136.345 35.8125V37.6035H137.726V38.5811H136.345V43.168C136.345 43.4642 136.406 43.6875 136.529 43.8379C136.652 43.9837 136.862 44.0566 137.158 44.0566C137.304 44.0566 137.505 44.0293 137.76 43.9746V45C137.427 45.0911 137.104 45.1367 136.789 45.1367C136.224 45.1367 135.798 44.9658 135.511 44.624C135.224 44.2822 135.08 43.7969 135.08 43.168V38.5811H133.733V37.6035H135.08V35.8125H136.345ZM138.737 41.2334C138.737 40.5088 138.879 39.8571 139.161 39.2783C139.448 38.6995 139.845 38.2529 140.351 37.9385C140.861 37.624 141.442 37.4668 142.094 37.4668C143.101 37.4668 143.914 37.8154 144.534 38.5127C145.159 39.21 145.471 40.1374 145.471 41.2949V41.3838C145.471 42.1038 145.332 42.751 145.054 43.3252C144.78 43.8949 144.386 44.3392 143.871 44.6582C143.361 44.9772 142.773 45.1367 142.107 45.1367C141.105 45.1367 140.291 44.7881 139.667 44.0908C139.047 43.3936 138.737 42.4707 138.737 41.3223V41.2334ZM140.009 41.3838C140.009 42.2041 140.198 42.8626 140.576 43.3594C140.959 43.8561 141.469 44.1045 142.107 44.1045C142.75 44.1045 143.26 43.8538 143.639 43.3525C144.017 42.8467 144.206 42.1403 144.206 41.2334C144.206 40.4222 144.012 39.766 143.625 39.2646C143.242 38.7588 142.732 38.5059 142.094 38.5059C141.469 38.5059 140.966 38.7542 140.583 39.251C140.2 39.7477 140.009 40.4587 140.009 41.3838ZM155.096 45C155.023 44.8542 154.964 44.5944 154.918 44.2207C154.33 44.8314 153.628 45.1367 152.812 45.1367C152.083 45.1367 151.484 44.9316 151.015 44.5215C150.55 44.1068 150.317 43.5827 150.317 42.9492C150.317 42.179 150.609 41.582 151.192 41.1582C151.78 40.7298 152.605 40.5156 153.667 40.5156H154.897V39.9346C154.897 39.4925 154.765 39.1416 154.501 38.8818C154.237 38.6175 153.847 38.4854 153.332 38.4854C152.881 38.4854 152.503 38.5993 152.197 38.8271C151.892 39.055 151.739 39.3307 151.739 39.6543H150.468C150.468 39.2852 150.598 38.9297 150.857 38.5879C151.122 38.2415 151.477 37.9681 151.924 37.7676C152.375 37.5671 152.869 37.4668 153.407 37.4668C154.259 37.4668 154.927 37.681 155.41 38.1094C155.893 38.5332 156.144 39.1188 156.162 39.8662V43.2705C156.162 43.9495 156.249 44.4896 156.422 44.8906V45H155.096ZM152.997 44.0361C153.394 44.0361 153.77 43.9336 154.125 43.7285C154.48 43.5234 154.738 43.2568 154.897 42.9287V41.4111H153.906C152.357 41.4111 151.582 41.8646 151.582 42.7715C151.582 43.168 151.714 43.4779 151.979 43.7012C152.243 43.9245 152.582 44.0361 152.997 44.0361ZM159.519 45H158.254V34.5H159.519V45ZM163.265 35.8125V37.6035H164.646V38.5811H163.265V43.168C163.265 43.4642 163.326 43.6875 163.449 43.8379C163.572 43.9837 163.782 44.0566 164.078 44.0566C164.224 44.0566 164.424 44.0293 164.68 43.9746V45C164.347 45.0911 164.023 45.1367 163.709 45.1367C163.144 45.1367 162.718 44.9658 162.431 44.624C162.144 44.2822 162 43.7969 162 43.168V38.5811H160.653V37.6035H162V35.8125H163.265ZM169.198 45.1367C168.196 45.1367 167.38 44.8086 166.751 44.1523C166.122 43.4915 165.808 42.6097 165.808 41.5068V41.2744C165.808 40.5407 165.947 39.8867 166.225 39.3125C166.507 38.7337 166.899 38.2826 167.4 37.959C167.906 37.6309 168.453 37.4668 169.041 37.4668C170.003 37.4668 170.75 37.7835 171.283 38.417C171.816 39.0505 172.083 39.9574 172.083 41.1377V41.6641H167.072C167.09 42.3932 167.302 42.9834 167.708 43.4346C168.118 43.8812 168.638 44.1045 169.267 44.1045C169.713 44.1045 170.091 44.0133 170.401 43.8311C170.711 43.6488 170.982 43.4072 171.215 43.1064L171.987 43.708C171.368 44.6605 170.438 45.1367 169.198 45.1367ZM169.041 38.5059C168.531 38.5059 168.102 38.6927 167.756 39.0664C167.41 39.4355 167.195 39.9551 167.113 40.625H170.818V40.5293C170.782 39.8867 170.609 39.39 170.299 39.0391C169.989 38.6836 169.57 38.5059 169.041 38.5059ZM177.128 38.7383C176.937 38.7064 176.729 38.6904 176.506 38.6904C175.676 38.6904 175.114 39.0436 174.817 39.75V45H173.553V37.6035H174.783L174.804 38.458C175.218 37.7972 175.806 37.4668 176.567 37.4668C176.813 37.4668 177 37.4987 177.128 37.5625V38.7383ZM179.493 37.6035L179.534 38.5332C180.099 37.8223 180.838 37.4668 181.749 37.4668C183.312 37.4668 184.101 38.3486 184.114 40.1123V45H182.85V40.1055C182.845 39.5723 182.722 39.1781 182.48 38.9229C182.243 38.6676 181.872 38.54 181.366 38.54C180.956 38.54 180.596 38.6494 180.286 38.8682C179.976 39.0869 179.735 39.374 179.562 39.7295V45H178.297V37.6035H179.493ZM190.588 45C190.515 44.8542 190.456 44.5944 190.41 44.2207C189.822 44.8314 189.12 45.1367 188.305 45.1367C187.576 45.1367 186.976 44.9316 186.507 44.5215C186.042 44.1068 185.81 43.5827 185.81 42.9492C185.81 42.179 186.101 41.582 186.685 41.1582C187.272 40.7298 188.097 40.5156 189.159 40.5156H190.39V39.9346C190.39 39.4925 190.257 39.1416 189.993 38.8818C189.729 38.6175 189.339 38.4854 188.824 38.4854C188.373 38.4854 187.995 38.5993 187.689 38.8271C187.384 39.055 187.231 39.3307 187.231 39.6543H185.96C185.96 39.2852 186.09 38.9297 186.35 38.5879C186.614 38.2415 186.969 37.9681 187.416 37.7676C187.867 37.5671 188.362 37.4668 188.899 37.4668C189.752 37.4668 190.419 37.681 190.902 38.1094C191.385 38.5332 191.636 39.1188 191.654 39.8662V43.2705C191.654 43.9495 191.741 44.4896 191.914 44.8906V45H190.588ZM188.489 44.0361C188.886 44.0361 189.262 43.9336 189.617 43.7285C189.973 43.5234 190.23 43.2568 190.39 42.9287V41.4111H189.398C187.849 41.4111 187.074 41.8646 187.074 42.7715C187.074 43.168 187.206 43.4779 187.471 43.7012C187.735 43.9245 188.075 44.0361 188.489 44.0361ZM195.353 35.8125V37.6035H196.733V38.5811H195.353V43.168C195.353 43.4642 195.414 43.6875 195.537 43.8379C195.66 43.9837 195.87 44.0566 196.166 44.0566C196.312 44.0566 196.512 44.0293 196.768 43.9746V45C196.435 45.0911 196.111 45.1367 195.797 45.1367C195.232 45.1367 194.806 44.9658 194.519 44.624C194.231 44.2822 194.088 43.7969 194.088 43.168V38.5811H192.741V37.6035H194.088V35.8125H195.353ZM199.591 45H198.326V37.6035H199.591V45ZM198.224 35.6416C198.224 35.4365 198.285 35.2633 198.408 35.1221C198.536 34.9808 198.723 34.9102 198.969 34.9102C199.215 34.9102 199.402 34.9808 199.529 35.1221C199.657 35.2633 199.721 35.4365 199.721 35.6416C199.721 35.8467 199.657 36.0176 199.529 36.1543C199.402 36.291 199.215 36.3594 198.969 36.3594C198.723 36.3594 198.536 36.291 198.408 36.1543C198.285 36.0176 198.224 35.8467 198.224 35.6416ZM204.062 43.2842L205.894 37.6035H207.186L204.533 45H203.569L200.89 37.6035H202.182L204.062 43.2842ZM211.376 45.1367C210.373 45.1367 209.558 44.8086 208.929 44.1523C208.3 43.4915 207.985 42.6097 207.985 41.5068V41.2744C207.985 40.5407 208.124 39.8867 208.402 39.3125C208.685 38.7337 209.077 38.2826 209.578 37.959C210.084 37.6309 210.631 37.4668 211.219 37.4668C212.18 37.4668 212.928 37.7835 213.461 38.417C213.994 39.0505 214.261 39.9574 214.261 41.1377V41.6641H209.25C209.268 42.3932 209.48 42.9834 209.886 43.4346C210.296 43.8812 210.815 44.1045 211.444 44.1045C211.891 44.1045 212.269 44.0133 212.579 43.8311C212.889 43.6488 213.16 43.4072 213.393 43.1064L214.165 43.708C213.545 44.6605 212.616 45.1367 211.376 45.1367ZM211.219 38.5059C210.708 38.5059 210.28 38.6927 209.934 39.0664C209.587 39.4355 209.373 39.9551 209.291 40.625H212.996V40.5293C212.96 39.8867 212.786 39.39 212.477 39.0391C212.167 38.6836 211.747 38.5059 211.219 38.5059ZM220.037 43.0381C220.037 42.6963 219.907 42.432 219.647 42.2451C219.392 42.0537 218.943 41.8896 218.301 41.7529C217.663 41.6162 217.155 41.4521 216.776 41.2607C216.403 41.0693 216.125 40.8415 215.942 40.5771C215.765 40.3128 215.676 39.9984 215.676 39.6338C215.676 39.0277 215.931 38.515 216.441 38.0957C216.956 37.6764 217.613 37.4668 218.41 37.4668C219.249 37.4668 219.928 37.6833 220.447 38.1162C220.971 38.5492 221.233 39.1029 221.233 39.7773H219.962C219.962 39.431 219.814 39.1325 219.518 38.8818C219.226 38.6312 218.857 38.5059 218.41 38.5059C217.95 38.5059 217.59 38.6061 217.33 38.8066C217.07 39.0072 216.94 39.2692 216.94 39.5928C216.94 39.8981 217.061 40.1283 217.303 40.2832C217.544 40.4382 217.979 40.5863 218.608 40.7275C219.242 40.8688 219.755 41.0374 220.146 41.2334C220.538 41.4294 220.828 41.6663 221.015 41.9443C221.206 42.2178 221.302 42.5527 221.302 42.9492C221.302 43.61 221.037 44.141 220.509 44.542C219.98 44.9385 219.294 45.1367 218.451 45.1367C217.859 45.1367 217.335 45.0319 216.879 44.8223C216.423 44.6126 216.065 44.321 215.806 43.9473C215.55 43.569 215.423 43.1611 215.423 42.7236H216.688C216.71 43.1475 216.879 43.4847 217.193 43.7354C217.512 43.9814 217.932 44.1045 218.451 44.1045C218.93 44.1045 219.312 44.0088 219.6 43.8174C219.891 43.6214 220.037 43.3617 220.037 43.0381Z" fill="white"/>
</svg>
